<?xml version="1.0"?>
<svg xmlns="http://www.w3.org/2000/svg" xmlns:xlink="http://www.w3.org/1999/xlink" version="1.1" viewBox="0 0 192 192" width="50px" height="50px"><g fill="none" fill-rule="nonzero" stroke="none" stroke-width="1" stroke-linecap="butt" stroke-linejoin="miter" stroke-miterlimit="10" stroke-dasharray="" stroke-dashoffset="0" font-family="none" font-weight="none" font-size="none" text-anchor="none" style="mix-blend-mode: normal"><path d="M0,192v-192h192v192z" fill="none"/><g fill="#ffffff"><path d="M34.56,15.36c-10.5984,0 -19.2,8.6016 -19.2,19.2v122.88c0,10.5984 8.6016,19.2 19.2,19.2h122.88c10.5984,0 19.2,-8.6016 19.2,-19.2v-122.88c0,-10.5984 -8.6016,-19.2 -19.2,-19.2zM65.28,49.92h30.8325c6.6816,0 34.4475,-0.0006 34.4475,20.505c0,4.3392 -1.0728,8.1408 -3.3,11.52c-2.2272,3.3792 -6.7191,5.8347 -10.5975,7.4475l3.105,0.465c5.568,1.152 10.0608,3.4563 13.44,7.0275c3.3408,3.5328 5.0325,8.2962 5.0325,14.325c0,4.3776 -0.8445,8.2551 -2.5725,11.5575c-1.6896,3.3408 -3.9909,6.0612 -6.8325,8.25c-3.4176,2.5728 -7.1862,4.4589 -11.295,5.5725c-4.0704,1.0752 -9.2124,1.65 -15.51,1.65h-36.75zM88.32,69.12v15.36h11.52c4.2432,0 7.68,-3.4368 7.68,-7.68c0,-4.2432 -3.4368,-7.68 -7.68,-7.68zM88.32,99.84v19.2h17.28c5.2992,0 9.6,-4.3008 9.6,-9.6c0,-5.2992 -4.3008,-9.6 -9.6,-9.6z"/></g></g></svg>
