<?xml version="1.0"?>
<svg xmlns="http://www.w3.org/2000/svg" xmlns:xlink="http://www.w3.org/1999/xlink" version="1.1" viewBox="0 0 192 192" width="50px" height="50px"><g fill="none" fill-rule="nonzero" stroke="none" stroke-width="1" stroke-linecap="butt" stroke-linejoin="miter" stroke-miterlimit="10" stroke-dasharray="" stroke-dashoffset="0" font-family="none" font-weight="none" font-size="none" text-anchor="none" style="mix-blend-mode: normal"><path d="M0,192v-192h192v192z" fill="none"/><g fill="#ffffff"><g id="surface1"><path d="M54.84,0c-30.225,0 -54.84,24.285 -54.84,54.12c0,9.15 2.385,18.075 6.84,26.04c-1.05,5.52 -1.56,11.205 -1.56,16.8c0,49.92 41.085,90.48 91.68,90.48c5.19,0 10.38,-0.345 15.48,-1.2c7.59,3.795 16.125,5.76 24.72,5.76c30.225,0 54.84,-24.285 54.84,-54.12c0,-8.01 -1.77,-15.66 -5.16,-22.8c1.23,-5.895 1.92,-11.985 1.92,-18.12c0,-49.905 -41.205,-90.48 -91.8,-90.48c-4.755,0 -9.555,0.36 -14.28,1.08c-8.43,-4.935 -17.985,-7.56 -27.84,-7.56zM96.36,36c7.86,0 14.745,0.855 20.52,2.64c5.79,1.77 10.695,4.125 14.52,7.08c3.87,2.985 6.825,6.165 8.64,9.48c1.83,3.345 2.76,6.75 2.76,9.96c0,3.105 -1.32,5.82 -3.72,8.28c-2.4,2.46 -5.415,3.72 -9,3.72c-3.255,0 -5.79,-0.75 -7.56,-2.28c-1.65,-1.44 -3.39,-3.63 -5.28,-6.84c-2.19,-4.11 -4.755,-7.455 -7.8,-9.72c-2.955,-2.205 -7.98,-3.24 -14.76,-3.24c-6.3,0 -11.445,1.14 -15.24,3.6c-3.675,2.37 -5.4,5.175 -5.4,8.4c0,1.98 0.615,3.615 1.8,5.04c1.26,1.5 2.925,2.745 5.16,3.84c2.31,1.14 4.695,2.115 7.08,2.76c2.445,0.66 6.615,1.71 12.24,3c7.11,1.515 13.65,3.105 19.44,4.92c5.85,1.86 10.875,4.185 15,6.84c4.2,2.7 7.59,6.165 9.96,10.32c2.37,4.155 3.48,9.255 3.48,15.24c-0.015,7.14 -2.025,13.62 -6.12,19.32c-4.08,5.685 -10.095,10.26 -17.88,13.44c-7.71,3.15 -16.965,4.68 -27.48,4.68c-12.63,0 -23.19,-2.145 -31.44,-6.48c-5.91,-3.135 -10.845,-7.47 -14.52,-12.72c-3.75,-5.31 -5.64,-10.515 -5.64,-15.6c0,-3.165 1.29,-5.895 3.72,-8.16c2.415,-2.22 5.445,-3.36 9.12,-3.36c3.015,0 5.685,0.87 7.8,2.64c2.04,1.695 3.765,4.215 5.16,7.44c1.56,3.525 3.225,6.405 5.04,8.76c1.71,2.235 4.155,4.17 7.32,5.64c3.18,1.5 7.545,2.28 12.84,2.28c7.275,0 13.17,-1.545 17.64,-4.56c4.38,-2.94 6.6,-6.465 6.6,-10.8c0,-3.42 -1.2,-6.18 -3.48,-8.28c-2.4,-2.205 -5.55,-3.87 -9.36,-5.04c-4.005,-1.215 -9.375,-2.565 -16.08,-3.96c-9.12,-1.935 -16.875,-4.26 -23.04,-6.84c-6.315,-2.655 -11.4,-6.345 -15.12,-10.92c-3.78,-4.665 -5.76,-10.41 -5.76,-17.28c0,-6.555 2.025,-12.555 6,-17.64c3.915,-5.04 9.645,-8.955 17.04,-11.64c7.29,-2.67 15.99,-3.96 25.8,-3.96z"/></g></g></g></svg>
